<svg xmlns="http://www.w3.org/2000/svg" viewBox="0 0 73 26" fill="none"><path fill="#FF70D9" d="M62 3.9c-2 0-3.9.5-5.5 1.4a9 9 0 0 0-3.7 3.9c-.8 1.6-1 3.3-.6 5a8.3 8.3 0 0 0 2.7 4.4c1.4 1.2 3.2 2 5.2 2.4 2 .3 4 .1 5.8-.5a9.9 9.9 0 0 0 4.5-3.2c1.1-1.4 1.7-3 1.7-4.8a8 8 0 0 0-3-6 11 11 0 0 0-7-2.6Zm0 13.9a7 7 0 0 1-3.4-.9c-1-.6-1.8-1.4-2.3-2.4-.4-1-.6-2-.3-3 .2-1 .8-2 1.7-2.7.8-.8 2-1.3 3.1-1.5 1.2-.2 2.5-.1 3.6.3s2.1 1 2.8 2c.7.8 1 1.9 1 2.9a5 5 0 0 1-1.8 3.7 6.7 6.7 0 0 1-4.4 1.6Zm-23-14c-2 0-3.9.6-5.5 1.5a9 9 0 0 0-3.7 3.9c-.8 1.6-1 3.3-.6 5a8.3 8.3 0 0 0 2.7 4.4c1.4 1.2 3.2 2 5.2 2.4 2 .3 4 .1 5.8-.5a9.9 9.9 0 0 0 4.5-3.2c1.1-1.4 1.7-3 1.7-4.8a8 8 0 0 0-3-6 11 11 0 0 0-7-2.6Zm0 14a7 7 0 0 1-3.2-.8c-1-.5-1.7-1.2-2.3-2a4.7 4.7 0 0 1 .5-5.6c.7-.8 1.6-1.4 2.7-1.8a7.1 7.1 0 0 1 6.3.9c1 .6 1.6 1.4 2 2.3h-6v3.4h6c-.5 1-1.3 2-2.3 2.6-1 .6-2.4 1-3.7 1Z"/><path stroke="#FF70D9" stroke-linecap="square" stroke-linejoin="round" stroke-width="1.5" d="M22.7 20.1c-.5-.6-1.2-1-2.1-.9-2.3.4-1-1.4-2.7-.7-1.3.6-2.2 2.2-2.5 2.9-.1-.5-.5-1.4-1.2-1.8-.8-.4-1 .3-1.6-.4-.5-.7-.5-1.7-.9-2.7-.4-1 1.4-2.4 2.5-1.9 1.2.6 1.9.3 2.4 1.1.6.8 1.3 1.9 1.3-1 0-3 1.4-4.3 2-4.3.7.1 2.6-.6 2.3-1.3-.4-.7-2.3-1-2.3-1.7 0-.6.9-2 0-2.6-.8-.6-3-1.9-4.5-1.7-1.6.1-2.1.7-2.1 1.3 0 .6 2 1.6 1 2.3-1.2.7-4.8 1.8-4.8.7S9.3 4 10 4s.9-1.7 1.3-1.7 2.2-.7 3-.3c.2 0 1-.1 1.8-.5m6.6 18.7a12 12 0 0 0-6.5-18.7m6.5 18.7a12 12 0 0 1-11.8 4.7m0 0c.1-.5.2-1 .4-1.2.6-1 2.7-.3 3-.7.2-.5-.8-1-1.7-1.5-.9-.4-2.4-.9-2.6-2.9-.2-2-1.2-1.7-1.4-2-.3-.2-2.7-1-3.5-2.4-.8-1.4 0-3.8 0-4.4 0-.5-2-1-3.2-1.2m9 16.3A12 12 0 0 1 2 8.5m0 0a12 12 0 0 1 14.2-7"/></svg>